 <svg version="1.0" xmlns="http://www.w3.org/2000/svg"  width="16.000000pt" height="16.000000pt" viewBox="0 0 16.000000 16.000000"  preserveAspectRatio="xMidYMid meet">  <g transform="translate(0.000000,16.000000) scale(0.100000,-0.100000)" fill="#00FF19" stroke="none"> <path d="M69 143 c-1 -5 0 -22 1 -39 1 -18 -3 -35 -9 -38 -12 -8 -26 13 -26 38 0 11 -6 21 -12 23 -9 3 -13 -7 -13 -29 0 -37 15 -58 41 -58 9 0 20 -8 24 -17 6 -16 8 -16 18 -3 7 8 21 20 32 26 11 6 21 22 23 36 2 20 -5 30 -33 47 -40 23 -45 25 -46 14z m54 -50 c9 -9 -13 -34 -24 -27 -14 8 -11 34 4 34 8 0 17 -3 20 -7z"/> </g> </svg> 